<mxfile host="Electron" modified="2023-12-24T13:05:28.685Z" agent="Mozilla/5.0 (Windows NT 10.0; Win64; x64) AppleWebKit/537.36 (KHTML, like Gecko) draw.io/22.1.2 Chrome/114.0.5735.289 Electron/25.9.4 Safari/537.36" etag="aNkB_xvvLKrpyJacQQP4" version="22.1.2" type="device">
  <diagram name="Page-1" id="qqe9KO98zH0CakM35WmT">
    <mxGraphModel dx="1687" dy="1040" grid="1" gridSize="10" guides="1" tooltips="1" connect="1" arrows="1" fold="1" page="1" pageScale="1" pageWidth="1169" pageHeight="1654" math="0" shadow="0">
      <root>
        <mxCell id="0" />
        <mxCell id="1" parent="0" />
        <mxCell id="SfScJbu2deopojGPgfz9-3" value="" style="endArrow=open;html=1;rounded=0;exitX=0.5;exitY=1;exitDx=0;exitDy=0;endFill=0;entryX=0.5;entryY=0;entryDx=0;entryDy=0;entryPerimeter=0;" parent="1" source="A-bpwYznotmKRVOag7Cg-2" target="SfScJbu2deopojGPgfz9-75" edge="1">
          <mxGeometry width="50" height="50" relative="1" as="geometry">
            <mxPoint x="532.5" y="60" as="sourcePoint" />
            <mxPoint x="405" y="138" as="targetPoint" />
          </mxGeometry>
        </mxCell>
        <mxCell id="SfScJbu2deopojGPgfz9-5" value="Enregistrer&amp;nbsp;&lt;br&gt;rendez-vous" style="strokeWidth=2;html=1;shape=mxgraph.flowchart.terminator;whiteSpace=wrap;" parent="1" vertex="1">
          <mxGeometry x="450" y="160" width="140" height="60" as="geometry" />
        </mxCell>
        <mxCell id="SfScJbu2deopojGPgfz9-13" value="" style="endArrow=open;html=1;rounded=0;endFill=0;entryX=0.5;entryY=0;entryDx=0;entryDy=0;entryPerimeter=0;exitX=0.5;exitY=1;exitDx=0;exitDy=0;exitPerimeter=0;" parent="1" source="SfScJbu2deopojGPgfz9-5" target="SfScJbu2deopojGPgfz9-14" edge="1">
          <mxGeometry width="50" height="50" relative="1" as="geometry">
            <mxPoint x="530" y="240" as="sourcePoint" />
            <mxPoint x="520" y="470" as="targetPoint" />
            <Array as="points" />
          </mxGeometry>
        </mxCell>
        <mxCell id="SfScJbu2deopojGPgfz9-14" value="" style="strokeWidth=2;html=1;shape=mxgraph.flowchart.decision;whiteSpace=wrap;" parent="1" vertex="1">
          <mxGeometry x="495" y="250" width="50" height="50" as="geometry" />
        </mxCell>
        <mxCell id="SfScJbu2deopojGPgfz9-17" value="" style="endArrow=open;html=1;rounded=0;exitX=1;exitY=0.5;exitDx=0;exitDy=0;exitPerimeter=0;endFill=0;entryX=0.5;entryY=0;entryDx=0;entryDy=0;entryPerimeter=0;" parent="1" source="SfScJbu2deopojGPgfz9-14" target="SfScJbu2deopojGPgfz9-18" edge="1">
          <mxGeometry width="50" height="50" relative="1" as="geometry">
            <mxPoint x="865" y="275" as="sourcePoint" />
            <mxPoint x="730" y="300" as="targetPoint" />
            <Array as="points">
              <mxPoint x="650" y="275" />
            </Array>
          </mxGeometry>
        </mxCell>
        <mxCell id="SfScJbu2deopojGPgfz9-18" value="Créer nouveau&lt;br&gt;patient" style="strokeWidth=2;html=1;shape=mxgraph.flowchart.terminator;whiteSpace=wrap;" parent="1" vertex="1">
          <mxGeometry x="580" y="290" width="140" height="60" as="geometry" />
        </mxCell>
        <mxCell id="SfScJbu2deopojGPgfz9-19" value="[patient n&#39;existe pas]" style="text;html=1;align=center;verticalAlign=middle;resizable=0;points=[];autosize=1;strokeColor=none;fillColor=none;" parent="1" vertex="1">
          <mxGeometry x="540" y="250" width="130" height="30" as="geometry" />
        </mxCell>
        <mxCell id="SfScJbu2deopojGPgfz9-20" value="" style="endArrow=open;html=1;rounded=0;exitX=0.5;exitY=1;exitDx=0;exitDy=0;exitPerimeter=0;endFill=0;entryX=0.5;entryY=0;entryDx=0;entryDy=0;entryPerimeter=0;" parent="1" source="SfScJbu2deopojGPgfz9-14" target="SfScJbu2deopojGPgfz9-22" edge="1">
          <mxGeometry width="50" height="50" relative="1" as="geometry">
            <mxPoint x="555" y="285" as="sourcePoint" />
            <mxPoint x="520" y="410" as="targetPoint" />
            <Array as="points">
              <mxPoint x="520" y="340" />
            </Array>
          </mxGeometry>
        </mxCell>
        <mxCell id="SfScJbu2deopojGPgfz9-21" value="Vérifier informations&lt;br&gt;du patient" style="strokeWidth=2;html=1;shape=mxgraph.flowchart.terminator;whiteSpace=wrap;" parent="1" vertex="1">
          <mxGeometry x="580" y="480" width="140" height="60" as="geometry" />
        </mxCell>
        <mxCell id="SfScJbu2deopojGPgfz9-22" value="" style="strokeWidth=2;html=1;shape=mxgraph.flowchart.decision;whiteSpace=wrap;" parent="1" vertex="1">
          <mxGeometry x="495" y="340" width="50" height="50" as="geometry" />
        </mxCell>
        <mxCell id="SfScJbu2deopojGPgfz9-23" value="" style="endArrow=open;html=1;rounded=0;endFill=0;entryX=1;entryY=0.5;entryDx=0;entryDy=0;entryPerimeter=0;exitX=0.5;exitY=1;exitDx=0;exitDy=0;exitPerimeter=0;" parent="1" source="SfScJbu2deopojGPgfz9-18" target="SfScJbu2deopojGPgfz9-22" edge="1">
          <mxGeometry width="50" height="50" relative="1" as="geometry">
            <mxPoint x="650" y="360" as="sourcePoint" />
            <mxPoint x="660" y="270" as="targetPoint" />
            <Array as="points">
              <mxPoint x="650" y="365" />
            </Array>
          </mxGeometry>
        </mxCell>
        <mxCell id="SfScJbu2deopojGPgfz9-24" value="" style="endArrow=open;html=1;rounded=0;exitX=0.5;exitY=1;exitDx=0;exitDy=0;exitPerimeter=0;endFill=0;entryX=0.5;entryY=0;entryDx=0;entryDy=0;entryPerimeter=0;" parent="1" source="SfScJbu2deopojGPgfz9-22" target="SfScJbu2deopojGPgfz9-25" edge="1">
          <mxGeometry width="50" height="50" relative="1" as="geometry">
            <mxPoint x="530" y="320" as="sourcePoint" />
            <mxPoint x="480" y="520" as="targetPoint" />
            <Array as="points" />
          </mxGeometry>
        </mxCell>
        <mxCell id="SfScJbu2deopojGPgfz9-25" value="" style="strokeWidth=2;html=1;shape=mxgraph.flowchart.decision;whiteSpace=wrap;" parent="1" vertex="1">
          <mxGeometry x="495" y="430" width="50" height="50" as="geometry" />
        </mxCell>
        <mxCell id="SfScJbu2deopojGPgfz9-27" value="" style="endArrow=open;html=1;rounded=0;endFill=0;exitX=1;exitY=0.5;exitDx=0;exitDy=0;exitPerimeter=0;entryX=0.5;entryY=0;entryDx=0;entryDy=0;entryPerimeter=0;" parent="1" source="SfScJbu2deopojGPgfz9-25" target="SfScJbu2deopojGPgfz9-21" edge="1">
          <mxGeometry width="50" height="50" relative="1" as="geometry">
            <mxPoint x="660" y="290" as="sourcePoint" />
            <mxPoint x="650" y="540" as="targetPoint" />
            <Array as="points">
              <mxPoint x="650" y="455" />
            </Array>
          </mxGeometry>
        </mxCell>
        <mxCell id="SfScJbu2deopojGPgfz9-28" value="[1er rdv du patient]" style="text;html=1;align=center;verticalAlign=middle;resizable=0;points=[];autosize=1;strokeColor=none;fillColor=none;" parent="1" vertex="1">
          <mxGeometry x="555" y="430" width="120" height="30" as="geometry" />
        </mxCell>
        <mxCell id="SfScJbu2deopojGPgfz9-30" value="" style="endArrow=open;html=1;rounded=0;exitX=0.5;exitY=1;exitDx=0;exitDy=0;exitPerimeter=0;endFill=0;entryX=0.5;entryY=0;entryDx=0;entryDy=0;entryPerimeter=0;" parent="1" source="SfScJbu2deopojGPgfz9-25" target="SfScJbu2deopojGPgfz9-42" edge="1">
          <mxGeometry width="50" height="50" relative="1" as="geometry">
            <mxPoint x="530" y="370" as="sourcePoint" />
            <mxPoint x="520" y="850" as="targetPoint" />
            <Array as="points">
              <mxPoint x="520" y="530" />
            </Array>
          </mxGeometry>
        </mxCell>
        <mxCell id="SfScJbu2deopojGPgfz9-31" value="Envoyer mail avec&lt;br&gt;code d&#39;accès" style="strokeWidth=2;html=1;shape=mxgraph.flowchart.terminator;whiteSpace=wrap;" parent="1" vertex="1">
          <mxGeometry x="580" y="570" width="140" height="60" as="geometry" />
        </mxCell>
        <mxCell id="SfScJbu2deopojGPgfz9-32" value="" style="endArrow=open;html=1;rounded=0;endFill=0;exitX=0.5;exitY=1;exitDx=0;exitDy=0;exitPerimeter=0;entryX=0.5;entryY=0;entryDx=0;entryDy=0;entryPerimeter=0;" parent="1" source="SfScJbu2deopojGPgfz9-21" target="SfScJbu2deopojGPgfz9-31" edge="1">
          <mxGeometry width="50" height="50" relative="1" as="geometry">
            <mxPoint x="555" y="425" as="sourcePoint" />
            <mxPoint x="660" y="490" as="targetPoint" />
            <Array as="points" />
          </mxGeometry>
        </mxCell>
        <mxCell id="SfScJbu2deopojGPgfz9-33" value="" style="strokeWidth=2;html=1;shape=mxgraph.flowchart.decision;whiteSpace=wrap;" parent="1" vertex="1">
          <mxGeometry x="625" y="660" width="50" height="50" as="geometry" />
        </mxCell>
        <mxCell id="SfScJbu2deopojGPgfz9-34" value="" style="endArrow=open;html=1;rounded=0;endFill=0;exitX=0.5;exitY=1;exitDx=0;exitDy=0;exitPerimeter=0;entryX=0.5;entryY=0;entryDx=0;entryDy=0;entryPerimeter=0;" parent="1" source="SfScJbu2deopojGPgfz9-31" target="SfScJbu2deopojGPgfz9-33" edge="1">
          <mxGeometry width="50" height="50" relative="1" as="geometry">
            <mxPoint x="670" y="660" as="sourcePoint" />
            <mxPoint x="650" y="670" as="targetPoint" />
            <Array as="points" />
          </mxGeometry>
        </mxCell>
        <mxCell id="SfScJbu2deopojGPgfz9-35" value="" style="endArrow=open;html=1;rounded=0;endFill=0;exitX=1;exitY=0.5;exitDx=0;exitDy=0;exitPerimeter=0;entryX=0.5;entryY=0;entryDx=0;entryDy=0;entryPerimeter=0;" parent="1" source="SfScJbu2deopojGPgfz9-33" target="SfScJbu2deopojGPgfz9-36" edge="1">
          <mxGeometry width="50" height="50" relative="1" as="geometry">
            <mxPoint x="690" y="685" as="sourcePoint" />
            <mxPoint x="730" y="730" as="targetPoint" />
            <Array as="points">
              <mxPoint x="770" y="685" />
            </Array>
          </mxGeometry>
        </mxCell>
        <mxCell id="SfScJbu2deopojGPgfz9-36" value="Créer nouveau&lt;br&gt;médecin" style="strokeWidth=2;html=1;shape=mxgraph.flowchart.terminator;whiteSpace=wrap;" parent="1" vertex="1">
          <mxGeometry x="700" y="700" width="140" height="60" as="geometry" />
        </mxCell>
        <mxCell id="SfScJbu2deopojGPgfz9-37" value="" style="endArrow=open;html=1;rounded=0;endFill=0;exitX=0.5;exitY=1;exitDx=0;exitDy=0;exitPerimeter=0;entryX=0.5;entryY=0;entryDx=0;entryDy=0;entryPerimeter=0;" parent="1" source="SfScJbu2deopojGPgfz9-33" target="SfScJbu2deopojGPgfz9-39" edge="1">
          <mxGeometry width="50" height="50" relative="1" as="geometry">
            <mxPoint x="660" y="640" as="sourcePoint" />
            <mxPoint x="650" y="810" as="targetPoint" />
            <Array as="points" />
          </mxGeometry>
        </mxCell>
        <mxCell id="SfScJbu2deopojGPgfz9-38" value="" style="endArrow=open;html=1;rounded=0;endFill=0;exitX=0.5;exitY=1;exitDx=0;exitDy=0;exitPerimeter=0;entryX=1;entryY=0.5;entryDx=0;entryDy=0;entryPerimeter=0;" parent="1" source="SfScJbu2deopojGPgfz9-36" target="SfScJbu2deopojGPgfz9-39" edge="1">
          <mxGeometry width="50" height="50" relative="1" as="geometry">
            <mxPoint x="660" y="640" as="sourcePoint" />
            <mxPoint x="720" y="850" as="targetPoint" />
            <Array as="points">
              <mxPoint x="770" y="775" />
            </Array>
          </mxGeometry>
        </mxCell>
        <mxCell id="SfScJbu2deopojGPgfz9-39" value="" style="strokeWidth=2;html=1;shape=mxgraph.flowchart.decision;whiteSpace=wrap;" parent="1" vertex="1">
          <mxGeometry x="625" y="750" width="50" height="50" as="geometry" />
        </mxCell>
        <mxCell id="SfScJbu2deopojGPgfz9-40" value="Enregistrer&lt;br&gt;prescription" style="strokeWidth=2;html=1;shape=mxgraph.flowchart.terminator;whiteSpace=wrap;" parent="1" vertex="1">
          <mxGeometry x="580" y="820" width="140" height="60" as="geometry" />
        </mxCell>
        <mxCell id="SfScJbu2deopojGPgfz9-41" value="" style="endArrow=open;html=1;rounded=0;endFill=0;exitX=0.5;exitY=1;exitDx=0;exitDy=0;exitPerimeter=0;entryX=0.5;entryY=0;entryDx=0;entryDy=0;entryPerimeter=0;" parent="1" source="SfScJbu2deopojGPgfz9-39" target="SfScJbu2deopojGPgfz9-40" edge="1">
          <mxGeometry width="50" height="50" relative="1" as="geometry">
            <mxPoint x="660" y="720" as="sourcePoint" />
            <mxPoint x="660" y="810" as="targetPoint" />
            <Array as="points" />
          </mxGeometry>
        </mxCell>
        <mxCell id="SfScJbu2deopojGPgfz9-42" value="" style="strokeWidth=2;html=1;shape=mxgraph.flowchart.decision;whiteSpace=wrap;" parent="1" vertex="1">
          <mxGeometry x="495" y="825" width="50" height="50" as="geometry" />
        </mxCell>
        <mxCell id="SfScJbu2deopojGPgfz9-43" value="" style="endArrow=open;html=1;rounded=0;endFill=0;entryX=1;entryY=0.5;entryDx=0;entryDy=0;entryPerimeter=0;exitX=0;exitY=0.5;exitDx=0;exitDy=0;exitPerimeter=0;" parent="1" source="SfScJbu2deopojGPgfz9-40" target="SfScJbu2deopojGPgfz9-42" edge="1">
          <mxGeometry width="50" height="50" relative="1" as="geometry">
            <mxPoint x="560" y="850" as="sourcePoint" />
            <mxPoint x="660" y="850" as="targetPoint" />
            <Array as="points" />
          </mxGeometry>
        </mxCell>
        <mxCell id="SfScJbu2deopojGPgfz9-44" value="" style="shape=link;html=1;rounded=0;" parent="1" edge="1">
          <mxGeometry width="100" relative="1" as="geometry">
            <mxPoint x="380" y="1085" as="sourcePoint" />
            <mxPoint x="659" y="1085" as="targetPoint" />
          </mxGeometry>
        </mxCell>
        <mxCell id="SfScJbu2deopojGPgfz9-45" value="" style="endArrow=open;html=1;rounded=0;endFill=0;exitX=0.5;exitY=1;exitDx=0;exitDy=0;exitPerimeter=0;entryX=0.5;entryY=0;entryDx=0;entryDy=0;entryPerimeter=0;" parent="1" source="SfScJbu2deopojGPgfz9-42" target="SfScJbu2deopojGPgfz9-46" edge="1">
          <mxGeometry width="50" height="50" relative="1" as="geometry">
            <mxPoint x="660" y="830" as="sourcePoint" />
            <mxPoint x="520" y="930" as="targetPoint" />
            <Array as="points" />
          </mxGeometry>
        </mxCell>
        <mxCell id="SfScJbu2deopojGPgfz9-46" value="" style="strokeWidth=2;html=1;shape=mxgraph.flowchart.decision;whiteSpace=wrap;" parent="1" vertex="1">
          <mxGeometry x="495" y="900" width="50" height="50" as="geometry" />
        </mxCell>
        <mxCell id="SfScJbu2deopojGPgfz9-47" value="" style="endArrow=open;html=1;rounded=0;endFill=0;exitX=1;exitY=0.5;exitDx=0;exitDy=0;exitPerimeter=0;entryX=0.5;entryY=0;entryDx=0;entryDy=0;entryPerimeter=0;" parent="1" source="SfScJbu2deopojGPgfz9-46" target="SfScJbu2deopojGPgfz9-49" edge="1">
          <mxGeometry width="50" height="50" relative="1" as="geometry">
            <mxPoint x="530" y="875" as="sourcePoint" />
            <mxPoint x="650" y="920" as="targetPoint" />
            <Array as="points">
              <mxPoint x="620" y="925" />
            </Array>
          </mxGeometry>
        </mxCell>
        <mxCell id="SfScJbu2deopojGPgfz9-48" value="" style="endArrow=open;html=1;rounded=0;endFill=0;exitX=0;exitY=0.5;exitDx=0;exitDy=0;exitPerimeter=0;entryX=0.5;entryY=0;entryDx=0;entryDy=0;entryPerimeter=0;" parent="1" source="SfScJbu2deopojGPgfz9-46" target="SfScJbu2deopojGPgfz9-50" edge="1">
          <mxGeometry width="50" height="50" relative="1" as="geometry">
            <mxPoint x="555" y="935" as="sourcePoint" />
            <mxPoint x="390" y="910" as="targetPoint" />
            <Array as="points">
              <mxPoint x="430" y="925" />
            </Array>
          </mxGeometry>
        </mxCell>
        <mxCell id="SfScJbu2deopojGPgfz9-49" value="Annuler&lt;br&gt;rendez-vous" style="strokeWidth=2;html=1;shape=mxgraph.flowchart.terminator;whiteSpace=wrap;" parent="1" vertex="1">
          <mxGeometry x="550" y="950" width="140" height="60" as="geometry" />
        </mxCell>
        <mxCell id="SfScJbu2deopojGPgfz9-50" value="Indiquer&lt;br&gt;rendez-vous&lt;br&gt;effectué" style="strokeWidth=2;html=1;shape=mxgraph.flowchart.terminator;whiteSpace=wrap;" parent="1" vertex="1">
          <mxGeometry x="360" y="950" width="140" height="60" as="geometry" />
        </mxCell>
        <mxCell id="SfScJbu2deopojGPgfz9-51" value="[patient n&#39;est pas là]" style="text;html=1;align=center;verticalAlign=middle;resizable=0;points=[];autosize=1;strokeColor=none;fillColor=none;" parent="1" vertex="1">
          <mxGeometry x="535" y="890" width="130" height="30" as="geometry" />
        </mxCell>
        <mxCell id="SfScJbu2deopojGPgfz9-52" value="" style="strokeWidth=2;html=1;shape=mxgraph.flowchart.decision;whiteSpace=wrap;" parent="1" vertex="1">
          <mxGeometry x="495" y="1010" width="50" height="50" as="geometry" />
        </mxCell>
        <mxCell id="SfScJbu2deopojGPgfz9-53" value="" style="endArrow=open;html=1;rounded=0;endFill=0;exitX=0.5;exitY=1;exitDx=0;exitDy=0;exitPerimeter=0;entryX=0;entryY=0.5;entryDx=0;entryDy=0;entryPerimeter=0;" parent="1" source="SfScJbu2deopojGPgfz9-50" target="SfScJbu2deopojGPgfz9-52" edge="1">
          <mxGeometry width="50" height="50" relative="1" as="geometry">
            <mxPoint x="505" y="935" as="sourcePoint" />
            <mxPoint x="440" y="978" as="targetPoint" />
            <Array as="points">
              <mxPoint x="430" y="1035" />
            </Array>
          </mxGeometry>
        </mxCell>
        <mxCell id="SfScJbu2deopojGPgfz9-54" value="" style="endArrow=open;html=1;rounded=0;endFill=0;exitX=0.5;exitY=1;exitDx=0;exitDy=0;exitPerimeter=0;entryX=1;entryY=0.5;entryDx=0;entryDy=0;entryPerimeter=0;" parent="1" source="SfScJbu2deopojGPgfz9-49" target="SfScJbu2deopojGPgfz9-52" edge="1">
          <mxGeometry width="50" height="50" relative="1" as="geometry">
            <mxPoint x="440" y="1038" as="sourcePoint" />
            <mxPoint x="500" y="1105" as="targetPoint" />
            <Array as="points">
              <mxPoint x="620" y="1035" />
            </Array>
          </mxGeometry>
        </mxCell>
        <mxCell id="SfScJbu2deopojGPgfz9-55" value="" style="endArrow=open;html=1;rounded=0;endFill=0;exitX=0.5;exitY=1;exitDx=0;exitDy=0;exitPerimeter=0;" parent="1" source="SfScJbu2deopojGPgfz9-52" edge="1">
          <mxGeometry width="50" height="50" relative="1" as="geometry">
            <mxPoint x="530" y="905" as="sourcePoint" />
            <mxPoint x="520" y="1080" as="targetPoint" />
            <Array as="points" />
          </mxGeometry>
        </mxCell>
        <mxCell id="SfScJbu2deopojGPgfz9-56" value="" style="endArrow=open;html=1;rounded=0;endFill=0;entryX=0.5;entryY=0;entryDx=0;entryDy=0;entryPerimeter=0;" parent="1" target="SfScJbu2deopojGPgfz9-60" edge="1">
          <mxGeometry width="50" height="50" relative="1" as="geometry">
            <mxPoint x="440" y="1088" as="sourcePoint" />
            <mxPoint x="440" y="1118" as="targetPoint" />
            <Array as="points" />
          </mxGeometry>
        </mxCell>
        <mxCell id="SfScJbu2deopojGPgfz9-57" value="" style="endArrow=open;html=1;rounded=0;endFill=0;entryX=0.5;entryY=0;entryDx=0;entryDy=0;entryPerimeter=0;" parent="1" target="SfScJbu2deopojGPgfz9-59" edge="1">
          <mxGeometry width="50" height="50" relative="1" as="geometry">
            <mxPoint x="600" y="1088" as="sourcePoint" />
            <mxPoint x="600" y="1118" as="targetPoint" />
            <Array as="points" />
          </mxGeometry>
        </mxCell>
        <mxCell id="SfScJbu2deopojGPgfz9-59" value="Mentionner&lt;br&gt;prescription" style="strokeWidth=2;html=1;shape=mxgraph.flowchart.terminator;whiteSpace=wrap;" parent="1" vertex="1">
          <mxGeometry x="530" y="1122" width="140" height="60" as="geometry" />
        </mxCell>
        <mxCell id="SfScJbu2deopojGPgfz9-60" value="Encoder&lt;br&gt;prestation" style="strokeWidth=2;html=1;shape=mxgraph.flowchart.terminator;whiteSpace=wrap;" parent="1" vertex="1">
          <mxGeometry x="370" y="1122" width="140" height="60" as="geometry" />
        </mxCell>
        <mxCell id="SfScJbu2deopojGPgfz9-62" value="" style="shape=link;html=1;rounded=0;" parent="1" edge="1">
          <mxGeometry width="100" relative="1" as="geometry">
            <mxPoint x="380" y="1225" as="sourcePoint" />
            <mxPoint x="659" y="1225" as="targetPoint" />
          </mxGeometry>
        </mxCell>
        <mxCell id="SfScJbu2deopojGPgfz9-63" value="" style="endArrow=open;html=1;rounded=0;endFill=0;exitX=0.5;exitY=1;exitDx=0;exitDy=0;exitPerimeter=0;" parent="1" source="SfScJbu2deopojGPgfz9-59" edge="1">
          <mxGeometry width="50" height="50" relative="1" as="geometry">
            <mxPoint x="610" y="1098" as="sourcePoint" />
            <mxPoint x="600" y="1222" as="targetPoint" />
            <Array as="points" />
          </mxGeometry>
        </mxCell>
        <mxCell id="SfScJbu2deopojGPgfz9-65" value="" style="endArrow=open;html=1;rounded=0;endFill=0;entryX=0.5;entryY=0;entryDx=0;entryDy=0;entryPerimeter=0;exitX=0.5;exitY=1;exitDx=0;exitDy=0;exitPerimeter=0;" parent="1" source="SfScJbu2deopojGPgfz9-60" edge="1">
          <mxGeometry width="50" height="50" relative="1" as="geometry">
            <mxPoint x="440" y="1188" as="sourcePoint" />
            <mxPoint x="440" y="1222" as="targetPoint" />
            <Array as="points" />
          </mxGeometry>
        </mxCell>
        <mxCell id="SfScJbu2deopojGPgfz9-66" value="" style="endArrow=open;html=1;rounded=0;endFill=0;entryX=0.5;entryY=0;entryDx=0;entryDy=0;entryPerimeter=0;" parent="1" target="SfScJbu2deopojGPgfz9-67" edge="1">
          <mxGeometry width="50" height="50" relative="1" as="geometry">
            <mxPoint x="519.71" y="1230" as="sourcePoint" />
            <mxPoint x="519.71" y="1264" as="targetPoint" />
            <Array as="points" />
          </mxGeometry>
        </mxCell>
        <mxCell id="SfScJbu2deopojGPgfz9-67" value="" style="strokeWidth=2;html=1;shape=mxgraph.flowchart.decision;whiteSpace=wrap;" parent="1" vertex="1">
          <mxGeometry x="495" y="1260" width="50" height="50" as="geometry" />
        </mxCell>
        <mxCell id="SfScJbu2deopojGPgfz9-68" value="" style="endArrow=open;html=1;rounded=0;endFill=0;exitX=1;exitY=0.5;exitDx=0;exitDy=0;exitPerimeter=0;entryX=0.5;entryY=0;entryDx=0;entryDy=0;entryPerimeter=0;" parent="1" source="SfScJbu2deopojGPgfz9-67" target="SfScJbu2deopojGPgfz9-70" edge="1">
          <mxGeometry width="50" height="50" relative="1" as="geometry">
            <mxPoint x="530" y="1020" as="sourcePoint" />
            <mxPoint x="620" y="1360" as="targetPoint" />
            <Array as="points">
              <mxPoint x="620" y="1285" />
            </Array>
          </mxGeometry>
        </mxCell>
        <mxCell id="SfScJbu2deopojGPgfz9-69" value="[fin traitement ou à la &lt;br&gt;demande du patient]" style="text;html=1;align=center;verticalAlign=middle;resizable=0;points=[];autosize=1;strokeColor=none;fillColor=none;" parent="1" vertex="1">
          <mxGeometry x="535" y="1240" width="140" height="40" as="geometry" />
        </mxCell>
        <mxCell id="SfScJbu2deopojGPgfz9-70" value="Délivrer&lt;br&gt;attestation" style="strokeWidth=2;html=1;shape=mxgraph.flowchart.terminator;whiteSpace=wrap;" parent="1" vertex="1">
          <mxGeometry x="550" y="1310" width="140" height="60" as="geometry" />
        </mxCell>
        <mxCell id="SfScJbu2deopojGPgfz9-71" value="" style="endArrow=open;html=1;rounded=0;endFill=0;exitX=0.5;exitY=1;exitDx=0;exitDy=0;exitPerimeter=0;entryX=0.5;entryY=0;entryDx=0;entryDy=0;entryPerimeter=0;" parent="1" source="SfScJbu2deopojGPgfz9-67" target="SfScJbu2deopojGPgfz9-72" edge="1">
          <mxGeometry width="50" height="50" relative="1" as="geometry">
            <mxPoint x="555" y="1295" as="sourcePoint" />
            <mxPoint x="520" y="1370" as="targetPoint" />
            <Array as="points">
              <mxPoint x="520" y="1340" />
            </Array>
          </mxGeometry>
        </mxCell>
        <mxCell id="SfScJbu2deopojGPgfz9-72" value="" style="strokeWidth=2;html=1;shape=mxgraph.flowchart.decision;whiteSpace=wrap;" parent="1" vertex="1">
          <mxGeometry x="495" y="1360" width="50" height="50" as="geometry" />
        </mxCell>
        <mxCell id="SfScJbu2deopojGPgfz9-73" value="" style="endArrow=open;html=1;rounded=0;endFill=0;exitX=0.5;exitY=1;exitDx=0;exitDy=0;exitPerimeter=0;entryX=1;entryY=0.5;entryDx=0;entryDy=0;entryPerimeter=0;" parent="1" source="SfScJbu2deopojGPgfz9-70" target="SfScJbu2deopojGPgfz9-72" edge="1">
          <mxGeometry width="50" height="50" relative="1" as="geometry">
            <mxPoint x="555" y="1295" as="sourcePoint" />
            <mxPoint x="630" y="1330" as="targetPoint" />
            <Array as="points">
              <mxPoint x="620" y="1385" />
            </Array>
          </mxGeometry>
        </mxCell>
        <mxCell id="SfScJbu2deopojGPgfz9-74" value="" style="endArrow=open;html=1;rounded=0;endFill=0;exitX=0.5;exitY=1;exitDx=0;exitDy=0;exitPerimeter=0;entryX=0;entryY=0.5;entryDx=0;entryDy=0;entryPerimeter=0;" parent="1" source="SfScJbu2deopojGPgfz9-72" target="SfScJbu2deopojGPgfz9-75" edge="1">
          <mxGeometry width="50" height="50" relative="1" as="geometry">
            <mxPoint x="630" y="1510" as="sourcePoint" />
            <mxPoint x="310" y="70" as="targetPoint" />
            <Array as="points">
              <mxPoint x="520" y="1430" />
              <mxPoint x="330" y="1430" />
              <mxPoint x="320" y="114" />
            </Array>
          </mxGeometry>
        </mxCell>
        <mxCell id="SfScJbu2deopojGPgfz9-75" value="" style="strokeWidth=2;html=1;shape=mxgraph.flowchart.decision;whiteSpace=wrap;" parent="1" vertex="1">
          <mxGeometry x="495" y="89" width="50" height="50" as="geometry" />
        </mxCell>
        <mxCell id="SfScJbu2deopojGPgfz9-76" value="" style="endArrow=open;html=1;rounded=0;exitX=0.5;exitY=1;exitDx=0;exitDy=0;exitPerimeter=0;endFill=0;entryX=0.5;entryY=0;entryDx=0;entryDy=0;entryPerimeter=0;" parent="1" source="SfScJbu2deopojGPgfz9-75" target="SfScJbu2deopojGPgfz9-5" edge="1">
          <mxGeometry width="50" height="50" relative="1" as="geometry">
            <mxPoint x="414" y="107" as="sourcePoint" />
            <mxPoint x="580" y="120" as="targetPoint" />
          </mxGeometry>
        </mxCell>
        <mxCell id="SfScJbu2deopojGPgfz9-79" value="" style="endArrow=open;html=1;rounded=0;exitX=1;exitY=0.5;exitDx=0;exitDy=0;exitPerimeter=0;endFill=0;" parent="1" source="SfScJbu2deopojGPgfz9-75" target="SfScJbu2deopojGPgfz9-81" edge="1">
          <mxGeometry width="50" height="50" relative="1" as="geometry">
            <mxPoint x="530" y="59" as="sourcePoint" />
            <mxPoint x="630" y="114" as="targetPoint" />
          </mxGeometry>
        </mxCell>
        <mxCell id="SfScJbu2deopojGPgfz9-81" value="" style="ellipse;html=1;shape=endState;fillColor=#000000;strokeColor=default;" parent="1" vertex="1">
          <mxGeometry x="720" y="99.00000000000011" width="30" height="30" as="geometry" />
        </mxCell>
        <mxCell id="SfScJbu2deopojGPgfz9-82" value="[toutes les séances de la&lt;br&gt;prescription sont &lt;br&gt;effectuées/annulées]" style="text;html=1;align=center;verticalAlign=middle;resizable=0;points=[];autosize=1;strokeColor=none;fillColor=none;" parent="1" vertex="1">
          <mxGeometry x="545" y="50" width="160" height="60" as="geometry" />
        </mxCell>
        <mxCell id="A-bpwYznotmKRVOag7Cg-2" value="" style="ellipse;whiteSpace=wrap;html=1;aspect=fixed;fillColor=#000000;strokeColor=none;" parent="1" vertex="1">
          <mxGeometry x="510" y="40" width="20" height="20" as="geometry" />
        </mxCell>
        <mxCell id="3s_eGoG2aYyKshntNjpc-1" value="[ si médecin non&lt;br&gt;enregistré ]" style="text;html=1;align=center;verticalAlign=middle;resizable=0;points=[];autosize=1;strokeColor=none;fillColor=none;" parent="1" vertex="1">
          <mxGeometry x="675" y="643" width="110" height="40" as="geometry" />
        </mxCell>
      </root>
    </mxGraphModel>
  </diagram>
</mxfile>
